<mxfile host="app.diagrams.net" agent="Mozilla/5.0 (Windows NT 10.0; Win64; x64) AppleWebKit/537.36 (KHTML, like Gecko) Chrome/123.0.0.0 Safari/537.36" version="27.0.6">
  <diagram name="第 1 页" id="qiOGjv0CLQQLxTLdFZIQ">
    <mxGraphModel dx="1426" dy="751" grid="1" gridSize="10" guides="1" tooltips="1" connect="1" arrows="1" fold="1" page="1" pageScale="1" pageWidth="827" pageHeight="1169" math="0" shadow="0">
      <root>
        <mxCell id="0" />
        <mxCell id="1" parent="0" />
        <mxCell id="BMvqyhL7TfmWCRuoedK3-6" value="" style="edgeStyle=orthogonalEdgeStyle;rounded=0;orthogonalLoop=1;jettySize=auto;html=1;" edge="1" parent="1" source="BMvqyhL7TfmWCRuoedK3-1" target="BMvqyhL7TfmWCRuoedK3-2">
          <mxGeometry relative="1" as="geometry" />
        </mxCell>
        <mxCell id="BMvqyhL7TfmWCRuoedK3-10" value="1..*" style="edgeLabel;html=1;align=center;verticalAlign=middle;resizable=0;points=[];" vertex="1" connectable="0" parent="BMvqyhL7TfmWCRuoedK3-6">
          <mxGeometry x="-0.25" y="2" relative="1" as="geometry">
            <mxPoint as="offset" />
          </mxGeometry>
        </mxCell>
        <mxCell id="BMvqyhL7TfmWCRuoedK3-7" value="" style="edgeStyle=orthogonalEdgeStyle;rounded=0;orthogonalLoop=1;jettySize=auto;html=1;" edge="1" parent="1" source="BMvqyhL7TfmWCRuoedK3-1" target="BMvqyhL7TfmWCRuoedK3-3">
          <mxGeometry relative="1" as="geometry" />
        </mxCell>
        <mxCell id="BMvqyhL7TfmWCRuoedK3-8" value="" style="edgeStyle=orthogonalEdgeStyle;rounded=0;orthogonalLoop=1;jettySize=auto;html=1;" edge="1" parent="1" source="BMvqyhL7TfmWCRuoedK3-1" target="BMvqyhL7TfmWCRuoedK3-4">
          <mxGeometry relative="1" as="geometry" />
        </mxCell>
        <mxCell id="BMvqyhL7TfmWCRuoedK3-9" value="" style="edgeStyle=orthogonalEdgeStyle;rounded=0;orthogonalLoop=1;jettySize=auto;html=1;" edge="1" parent="1" source="BMvqyhL7TfmWCRuoedK3-1" target="BMvqyhL7TfmWCRuoedK3-5">
          <mxGeometry relative="1" as="geometry" />
        </mxCell>
        <mxCell id="BMvqyhL7TfmWCRuoedK3-1" value="tb_ordedr" style="rounded=1;whiteSpace=wrap;html=1;" vertex="1" parent="1">
          <mxGeometry x="320" y="440" width="120" height="60" as="geometry" />
        </mxCell>
        <mxCell id="BMvqyhL7TfmWCRuoedK3-2" value="tb_order_pay" style="rounded=1;whiteSpace=wrap;html=1;" vertex="1" parent="1">
          <mxGeometry x="520" y="440" width="120" height="60" as="geometry" />
        </mxCell>
        <mxCell id="BMvqyhL7TfmWCRuoedK3-3" value="tb_order_goods" style="rounded=1;whiteSpace=wrap;html=1;" vertex="1" parent="1">
          <mxGeometry x="120" y="440" width="120" height="60" as="geometry" />
        </mxCell>
        <mxCell id="BMvqyhL7TfmWCRuoedK3-4" value="tb_order_saled" style="rounded=1;whiteSpace=wrap;html=1;" vertex="1" parent="1">
          <mxGeometry x="320" y="320" width="120" height="60" as="geometry" />
        </mxCell>
        <mxCell id="BMvqyhL7TfmWCRuoedK3-5" value="tb_s_order_org" style="rounded=1;whiteSpace=wrap;html=1;" vertex="1" parent="1">
          <mxGeometry x="320" y="570" width="120" height="60" as="geometry" />
        </mxCell>
      </root>
    </mxGraphModel>
  </diagram>
</mxfile>
